<?xml version="1.0" encoding="UTF-8" standalone="no"?>
<!DOCTYPE svg PUBLIC "-//W3C//DTD SVG 1.1//EN"
 "http://www.w3.org/Graphics/SVG/1.1/DTD/svg11.dtd">
<!-- Generated by graphviz version 2.47.0 (20210316.0004)
 -->
<!-- Title: dependencies Pages: 1 -->
<svg width="1064pt" height="290pt"
 viewBox="0.00 0.00 1064.00 290.00" xmlns="http://www.w3.org/2000/svg" xmlns:xlink="http://www.w3.org/1999/xlink">
<g id="graph0" class="graph" transform="scale(1 1) rotate(0) translate(4 286)">
<title>dependencies</title>
<polygon fill="white" stroke="transparent" points="-4,4 -4,-286 1060,-286 1060,4 -4,4"/>
<text text-anchor="start" x="507.01" y="-42.4" font-family="Times-12" font-weight="bold" font-size="14.00">Legend</text>
<polygon fill="#ffffb3" stroke="transparent" points="294,-10 294,-30 314,-30 314,-10 294,-10"/>
<text text-anchor="start" x="317.63" y="-15.4" font-family="Times-12" font-size="14.00"> &#160;Declarations</text>
<polygon fill="#8dd3c7" stroke="transparent" points="407,-10 407,-30 427,-30 427,-10 407,-10"/>
<text text-anchor="start" x="430.73" y="-15.4" font-family="Times-12" font-size="14.00"> &#160;Module</text>
<polygon fill="#80b1d3" stroke="transparent" points="493,-10 493,-30 513,-30 513,-10 493,-10"/>
<text text-anchor="start" x="516.78" y="-15.4" font-family="Times-12" font-size="14.00"> &#160;Bootstrap</text>
<polygon fill="#fdb462" stroke="transparent" points="590,-10 590,-30 610,-30 610,-10 590,-10"/>
<text text-anchor="start" x="613.67" y="-15.4" font-family="Times-12" font-size="14.00"> &#160;Providers</text>
<polygon fill="#fb8072" stroke="transparent" points="686,-10 686,-30 706,-30 706,-10 686,-10"/>
<text text-anchor="start" x="709.73" y="-15.4" font-family="Times-12" font-size="14.00"> &#160;Exports</text>
<g id="clust19" class="cluster">
<title>cluster_SampleModule</title>
<polygon fill="none" stroke="black" stroke-dasharray="1,5" points="720,-70 720,-198 890,-198 890,-70 720,-70"/>
</g>
<g id="clust24" class="cluster">
<title>cluster_SampleModule_providers</title>
<polygon fill="none" stroke="black" points="728,-78 728,-130 882,-130 882,-78 728,-78"/>
</g>
<g id="clust7" class="cluster">
<title>cluster_AuthModule</title>
<polygon fill="none" stroke="black" stroke-dasharray="1,5" points="898,-70 898,-274 1048,-274 1048,-70 898,-70"/>
</g>
<g id="clust10" class="cluster">
<title>cluster_AuthModule_exports</title>
<polygon fill="none" stroke="black" points="913,-214 913,-266 1019,-266 1019,-214 913,-214"/>
</g>
<g id="clust12" class="cluster">
<title>cluster_AuthModule_providers</title>
<polygon fill="none" stroke="black" points="906,-78 906,-130 1040,-130 1040,-78 906,-78"/>
</g>
<g id="clust13" class="cluster">
<title>cluster_PostsModule</title>
<polygon fill="none" stroke="black" stroke-dasharray="1,5" points="162,-70 162,-198 430,-198 430,-70 162,-70"/>
</g>
<g id="clust15" class="cluster">
<title>cluster_PostsModule_imports</title>
<polygon fill="none" stroke="black" points="314,-78 314,-130 422,-130 422,-78 314,-78"/>
</g>
<g id="clust18" class="cluster">
<title>cluster_PostsModule_providers</title>
<polygon fill="none" stroke="black" points="170,-78 170,-130 306,-130 306,-78 170,-78"/>
</g>
<g id="clust1" class="cluster">
<title>cluster_AppModule</title>
<polygon fill="none" stroke="black" stroke-dasharray="1,5" points="8,-138 8,-266 154,-266 154,-138 8,-138"/>
</g>
<g id="clust6" class="cluster">
<title>cluster_AppModule_providers</title>
<polygon fill="none" stroke="black" points="16,-146 16,-198 146,-198 146,-146 16,-146"/>
</g>
<g id="clust25" class="cluster">
<title>cluster_UsersModule</title>
<polygon fill="none" stroke="black" stroke-dasharray="1,5" points="438,-138 438,-206 712,-206 712,-138 438,-138"/>
</g>
<g id="clust30" class="cluster">
<title>cluster_UsersModule_providers</title>
<polygon fill="none" stroke="black" points="564,-146 564,-198 704,-198 704,-146 564,-146"/>
</g>
<g id="clust28" class="cluster">
<title>cluster_UsersModule_exports</title>
<polygon fill="none" stroke="black" points="446,-146 446,-198 556,-198 556,-146 446,-146"/>
</g>
<!-- AuthModule -->
<g id="node1" class="node">
<title>AuthModule</title>
<polygon fill="#8dd3c7" stroke="black" points="1009.55,-190 1006.55,-194 985.55,-194 982.55,-190 922.45,-190 922.45,-154 1009.55,-154 1009.55,-190"/>
<text text-anchor="middle" x="966" y="-167.8" font-family="Times,serif" font-size="14.00">AuthModule</text>
</g>
<!-- AppModule -->
<g id="node5" class="node">
<title>AppModule</title>
<polygon fill="#8dd3c7" stroke="black" points="145.66,-258 142.66,-262 121.66,-262 118.66,-258 62.34,-258 62.34,-222 145.66,-222 145.66,-258"/>
<text text-anchor="middle" x="104" y="-235.8" font-family="Times,serif" font-size="14.00">AppModule</text>
</g>
<!-- AuthModule&#45;&gt;AppModule -->
<g id="edge1" class="edge">
<title>AuthModule&#45;&gt;AppModule</title>
<path fill="none" stroke="black" d="M922.31,-172C919.33,-172 917.48,-172 917.48,-172 917.48,-172 917.48,-249 917.48,-249 917.48,-249 155.74,-249 155.74,-249"/>
<polygon fill="black" stroke="black" points="155.74,-245.5 145.74,-249 155.74,-252.5 155.74,-245.5"/>
</g>
<!-- AuthService  -->
<g id="node7" class="node">
<title>AuthService </title>
<polygon fill="#fb8072" stroke="black" points="1010.98,-258 921.02,-258 921.02,-222 1010.98,-222 1010.98,-258"/>
<text text-anchor="middle" x="966" y="-235.8" font-family="Times,serif" font-size="14.00">AuthService </text>
</g>
<!-- AuthModule&#45;&gt;AuthService  -->
<g id="edge6" class="edge">
<title>AuthModule&#45;&gt;AuthService </title>
<path fill="none" stroke="black" stroke-dasharray="5,2" d="M966,-190.22C966,-190.22 966,-211.73 966,-211.73"/>
<polygon fill="black" stroke="black" points="962.5,-211.73 966,-221.73 969.5,-211.73 962.5,-211.73"/>
</g>
<!-- PostsModule -->
<g id="node2" class="node">
<title>PostsModule</title>
<polygon fill="#8dd3c7" stroke="black" points="282.61,-190 279.61,-194 258.61,-194 255.61,-190 193.39,-190 193.39,-154 282.61,-154 282.61,-190"/>
<text text-anchor="middle" x="238" y="-167.8" font-family="Times,serif" font-size="14.00">PostsModule</text>
</g>
<!-- PostsModule&#45;&gt;AppModule -->
<g id="edge2" class="edge">
<title>PostsModule&#45;&gt;AppModule</title>
<path fill="none" stroke="black" d="M193.24,-172C168.1,-172 141.72,-172 141.72,-172 141.72,-172 141.72,-211.78 141.72,-211.78"/>
<polygon fill="black" stroke="black" points="138.22,-211.78 141.72,-221.78 145.22,-211.78 138.22,-211.78"/>
</g>
<!-- SampleModule -->
<g id="node3" class="node">
<title>SampleModule</title>
<polygon fill="#8dd3c7" stroke="black" points="842.54,-190 839.54,-194 818.54,-194 815.54,-190 741.46,-190 741.46,-154 842.54,-154 842.54,-190"/>
<text text-anchor="middle" x="792" y="-167.8" font-family="Times,serif" font-size="14.00">SampleModule</text>
</g>
<!-- SampleModule&#45;&gt;AppModule -->
<g id="edge3" class="edge">
<title>SampleModule&#45;&gt;AppModule</title>
<path fill="none" stroke="black" d="M792,-190.22C792,-210.37 792,-240 792,-240 792,-240 155.74,-240 155.74,-240"/>
<polygon fill="black" stroke="black" points="155.74,-236.5 145.74,-240 155.74,-243.5 155.74,-236.5"/>
</g>
<!-- UsersModule -->
<g id="node4" class="node">
<title>UsersModule</title>
<polygon fill="#8dd3c7" stroke="black" points="413.92,-122 410.92,-126 389.92,-126 386.92,-122 322.08,-122 322.08,-86 413.92,-86 413.92,-122"/>
<text text-anchor="middle" x="368" y="-99.8" font-family="Times,serif" font-size="14.00">UsersModule</text>
</g>
<!-- UsersModule&#45;&gt;PostsModule -->
<g id="edge8" class="edge">
<title>UsersModule&#45;&gt;PostsModule</title>
<path fill="none" stroke="black" d="M345.14,-122.29C345.14,-144.21 345.14,-178 345.14,-178 345.14,-178 292.82,-178 292.82,-178"/>
<polygon fill="black" stroke="black" points="292.82,-174.5 282.82,-178 292.82,-181.5 292.82,-174.5"/>
</g>
<!-- UsersModule&#45;&gt;AppModule -->
<g id="edge4" class="edge">
<title>UsersModule&#45;&gt;AppModule</title>
<path fill="none" stroke="black" d="M368,-122.2C368,-157.31 368,-231 368,-231 368,-231 155.83,-231 155.83,-231"/>
<polygon fill="black" stroke="black" points="155.83,-227.5 145.83,-231 155.83,-234.5 155.83,-227.5"/>
</g>
<!-- UsersService  -->
<g id="node11" class="node">
<title>UsersService </title>
<polygon fill="#fb8072" stroke="black" points="547.85,-190 454.15,-190 454.15,-154 547.85,-154 547.85,-190"/>
<text text-anchor="middle" x="501" y="-167.8" font-family="Times,serif" font-size="14.00">UsersService </text>
</g>
<!-- UsersModule&#45;&gt;UsersService  -->
<g id="edge11" class="edge">
<title>UsersModule&#45;&gt;UsersService </title>
<path fill="none" stroke="black" stroke-dasharray="5,2" d="M390.86,-122.27C390.86,-140.56 390.86,-166 390.86,-166 390.86,-166 444.29,-166 444.29,-166"/>
<polygon fill="black" stroke="black" points="444.29,-169.5 454.29,-166 444.29,-162.5 444.29,-169.5"/>
</g>
<!-- AppService -->
<g id="node6" class="node">
<title>AppService</title>
<ellipse fill="#fdb462" stroke="black" cx="81" cy="-172" rx="56.74" ry="18"/>
<text text-anchor="middle" x="81" y="-167.8" font-family="Times,serif" font-size="14.00">AppService</text>
</g>
<!-- AppService&#45;&gt;AppModule -->
<g id="edge5" class="edge">
<title>AppService&#45;&gt;AppModule</title>
<path fill="none" stroke="black" d="M99.9,-189.16C99.9,-189.16 99.9,-211.65 99.9,-211.65"/>
<polygon fill="black" stroke="black" points="96.4,-211.65 99.9,-221.65 103.4,-211.65 96.4,-211.65"/>
</g>
<!-- AuthService -->
<g id="node8" class="node">
<title>AuthService</title>
<ellipse fill="#fdb462" stroke="black" cx="973" cy="-104" rx="59.11" ry="18"/>
<text text-anchor="middle" x="973" y="-99.8" font-family="Times,serif" font-size="14.00">AuthService</text>
</g>
<!-- AuthService&#45;&gt;AuthModule -->
<g id="edge7" class="edge">
<title>AuthService&#45;&gt;AuthModule</title>
<path fill="none" stroke="black" d="M966,-122.22C966,-122.22 966,-143.73 966,-143.73"/>
<polygon fill="black" stroke="black" points="962.5,-143.73 966,-153.73 969.5,-143.73 962.5,-143.73"/>
</g>
<!-- PostsService -->
<g id="node9" class="node">
<title>PostsService</title>
<ellipse fill="#fdb462" stroke="black" cx="238" cy="-104" rx="60.27" ry="18"/>
<text text-anchor="middle" x="238" y="-99.8" font-family="Times,serif" font-size="14.00">PostsService</text>
</g>
<!-- PostsService&#45;&gt;PostsModule -->
<g id="edge9" class="edge">
<title>PostsService&#45;&gt;PostsModule</title>
<path fill="none" stroke="black" d="M238,-122.22C238,-122.22 238,-143.73 238,-143.73"/>
<polygon fill="black" stroke="black" points="234.5,-143.73 238,-153.73 241.5,-143.73 234.5,-143.73"/>
</g>
<!-- SampleService -->
<g id="node10" class="node">
<title>SampleService</title>
<ellipse fill="#fdb462" stroke="black" cx="805" cy="-104" rx="68.92" ry="18"/>
<text text-anchor="middle" x="805" y="-99.8" font-family="Times,serif" font-size="14.00">SampleService</text>
</g>
<!-- SampleService&#45;&gt;SampleModule -->
<g id="edge10" class="edge">
<title>SampleService&#45;&gt;SampleModule</title>
<path fill="none" stroke="black" d="M792,-121.87C792,-121.87 792,-143.54 792,-143.54"/>
<polygon fill="black" stroke="black" points="788.5,-143.54 792,-153.54 795.5,-143.54 788.5,-143.54"/>
</g>
<!-- UsersService -->
<g id="node12" class="node">
<title>UsersService</title>
<ellipse fill="#fdb462" stroke="black" cx="634" cy="-172" rx="61.95" ry="18"/>
<text text-anchor="middle" x="634" y="-167.8" font-family="Times,serif" font-size="14.00">UsersService</text>
</g>
<!-- UsersService&#45;&gt;UsersModule -->
<g id="edge12" class="edge">
<title>UsersService&#45;&gt;UsersModule</title>
<path fill="none" stroke="black" d="M634,-153.78C634,-133.63 634,-104 634,-104 634,-104 423.73,-104 423.73,-104"/>
<polygon fill="black" stroke="black" points="423.73,-100.5 413.73,-104 423.73,-107.5 423.73,-100.5"/>
</g>
</g>
</svg>
